# xmcd
#
# Track frame offsets:
#	150
#	45768
#	63880
#	93780
#	120274
#	182035
#	189944
#	235736
#	253376
#	279151
#	308375
#
# Disc length: 4669 seconds
#
# Revision: 0
# Processed by: cddbd v1.5.1PL0 Copyright (c) Steve Scherf et al.
# Submitted via: EasyCDDAExtractor 5.0.4.1
#
DISCID=79123b0b
DTITLE=The Butterfield Blues Band - Live CD1
DYEAR=2004
DGENRE=Blues
TTITLE0=Everything Going To Be Alright
TTITLE1=Love Disease
TTITLE2=The Boxer
TTITLE3=No Amount Of Loving
TTITLE4=Driftin' And Driftin'
TTITLE5=Intro To Musicians
TTITLE6=Number Nine
TTITLE7=I Want To Be With You
TTITLE8=Born Under A Bad Sign
TTITLE9=Get Together Again
TTITLE10=So Far, So Good
EXTD=2004 Electra Entertainment - \nRhino Handmade Reissue\n
EXTT0=
EXTT1=
EXTT2=
EXTT3=
EXTT4=
EXTT5=
EXTT6=
EXTT7=
EXTT8=
EXTT9=
EXTT10=
PLAYORDER=
